<svg width="15" height="14" viewBox="0 0 15 14" fill="none" xmlns="http://www.w3.org/2000/svg">
<path fill-rule="evenodd" clip-rule="evenodd" d="M7.68268 0.81743C7.88577 1.02058 7.99986 1.29608 7.99986 1.58335C7.99986 1.87061 7.88577 2.14611 7.68268 2.34926L3.03193 7.00001L7.68268 11.6508C7.88002 11.8551 7.98921 12.1287 7.98674 12.4128C7.98427 12.6968 7.87034 12.9685 7.66948 13.1694C7.46862 13.3703 7.19691 13.4842 6.91286 13.4867C6.62882 13.4891 6.35516 13.3799 6.15084 13.1826L0.734178 7.76593C0.531084 7.56277 0.416992 7.28727 0.416992 7.00001C0.416992 6.71275 0.531084 6.43725 0.734178 6.2341L6.15084 0.81743C6.354 0.614336 6.6295 0.500244 6.91676 0.500244C7.20402 0.500244 7.47952 0.614336 7.68268 0.81743ZM14.1827 0.81743C14.3858 1.02058 14.4999 1.29608 14.4999 1.58335C14.4999 1.87061 14.3858 2.14611 14.1827 2.34926L9.53193 7.00001L14.1827 11.6508C14.38 11.8551 14.4892 12.1287 14.4867 12.4128C14.4843 12.6968 14.3703 12.9685 14.1695 13.1694C13.9686 13.3703 13.6969 13.4842 13.4129 13.4867C13.1288 13.4891 12.8552 13.3799 12.6508 13.1826L7.23418 7.76593C7.03108 7.56277 6.91699 7.28727 6.91699 7.00001C6.91699 6.71275 7.03108 6.43725 7.23418 6.2341L12.6508 0.81743C12.854 0.614336 13.1295 0.500244 13.4168 0.500244C13.704 0.500244 13.9795 0.614336 14.1827 0.81743Z" fill="#8B8B8B"/>
</svg>
