<?xml version="1.0" encoding="utf-8"?>
<!-- Generator: Adobe Illustrator 27.5.0, SVG Export Plug-In . SVG Version: 6.00 Build 0)  -->
<svg version="1.1" id="Layer_1_1_" xmlns="http://www.w3.org/2000/svg"
     xmlns:xlink="http://www.w3.org/1999/xlink" x="0px" y="0px"
     viewBox="0 0 450 450" style="enable-background:new 0 0 450 450;"
     xml:space="preserve">
<g>
	<rect y="0" style="fill:#FFFFFF;" width="450" height="450"/>

    <ellipse transform="matrix(0.0054 -1 1 0.0054 -85.3335 532.4387)"
             style="fill:#6CC7E1;" cx="225" cy="309.118" rx="102.731"
             ry="177.942"/>
    <g>
		<g>
			<g>
				<g>
					<g>
						<path style="fill:#BFBFBF;" d="M307.462,345.275l-130.6-75.402c-4.254-2.456-3.721-6.746,1.192-9.583l17.012-9.822
							c4.912-2.836,12.343-3.144,16.597-0.688l130.6,75.402c4.254,2.456,3.721,6.746-1.192,9.583l-17.012,9.822
							C319.148,347.423,311.717,347.731,307.462,345.275z"/>
                        <g>
							<path style="fill:#BFC9D5;" d="M235.647,283.343l4.322-2.496c2.641-1.525,5.714-2.58,8.898-3.257
								c-0.692-1.011-1.006-1.957-0.894-2.757l-0.026-0.011c0,0,0.026-0.074,0.033-0.094c0.031-0.162,0.093-0.31,0.159-0.458
								c22.618-5.927,8.951-12.838,8.951-32.825c22.886,0,24.344,0,24.344,0s13.511,27.186,13.511,54.271c0,0,0,0.479-0.121,1.934
								l-0.004-0.003c0.004,3.237-3.381,6.733-8.736,9.825l-4.323,2.495c-8.596,4.963-19.004,7.002-26.448,2.703l-21.752-12.559
								C226.116,295.814,227.05,288.306,235.647,283.343z"/>

                            <linearGradient id="SVGID_1_"
                                            gradientUnits="userSpaceOnUse"
                                            x1="-15747.0029" y1="308.0228"
                                            x2="-15781.9609" y2="247.4737"
                                            gradientTransform="matrix(-1 0 0 1 -15495.1631 0)">
								<stop offset="0.3387"
                                      style="stop-color:#BFC9D5"/>
                                <stop offset="0.4118"
                                      style="stop-color:#B8C3D0"/>
                                <stop offset="0.5203"
                                      style="stop-color:#A3B1C3"/>
                                <stop offset="0.5737"
                                      style="stop-color:#97A6BB"/>
							</linearGradient>
                            <path style="fill:url(#SVGID_1_);" d="M235.646,280.701l4.323-2.496c16.664-9.053,14.581-15.307,14.581-35.294
								c22.885,0,24.344,0,24.344,0s13.181,26.569,13.484,53.343c0.003,0.095,0.01,0.189,0.009,0.284
								c0.001,0.215,0.019,0.43,0.019,0.645l-0.035-0.016c0.007,0.509-0.233,1.323-0.599,2.009
								c-0.883,1.997-2.731,3.947-5.688,5.654l-4.323,2.496c-8.596,4.963-19.004,7.001-26.448,2.703l-21.752-12.559
								C226.116,293.172,227.05,285.664,235.646,280.701z"/>
						</g>
					</g>
                    <g>
						<g>
							<path style="fill:#E3E8EE;" d="M179.862,72.312l-0.328,115.753l162.175,93.632l-0.034,12.036
								c-0.015,5.319-3.781,7.465-8.41,4.792l-145.41-83.953c-4.629-2.673-8.37-9.152-8.355-14.471L179.862,72.312z"/>
						</g>
                        <g>
							<path style="fill:#212540;" d="M182.111,66.594l6.05-3.516c1.401-0.814,3.341-0.699,5.484,0.538l-6.05,3.516
								C185.452,65.895,183.511,65.78,182.111,66.594z"/>
						</g>
                        <g>
							<path style="fill:#BFC9D5;" d="M345.279,295.593l-6.049,3.516c1.505-0.875,2.438-2.734,2.445-5.376l6.049-3.516
								C347.717,292.86,346.784,294.719,345.279,295.593z"/>
						</g>
                        <g>
							<polygon style="fill:#BFC9D5;"
                                     points="341.709,281.696 347.758,278.181 347.724,290.217 341.675,293.733 							"/>
						</g>
                        <g>
							<polygon style="fill:#212540;"
                                     points="342.039,165.165 348.089,161.65 347.758,278.181 341.709,281.696 							"/>
						</g>
                        <g>
							<polygon style="fill:#212540;"
                                     points="187.594,67.132 193.644,63.617 340.409,148.352 334.36,151.867 							"/>
						</g>
                        <g>
							<path style="fill:#30344D;" d="M334.36,151.867c4.254,2.456,7.693,8.41,7.68,13.298l-0.33,116.531l-162.175-93.632
								l0.328-115.753l0.002-0.778c0.014-4.888,3.472-6.859,7.73-4.401L334.36,151.867z"/>
						</g>
                        <g>
							<path style="fill:#212540;" d="M334.36,151.867l6.049-3.516c4.254,2.456,7.693,8.41,7.68,13.298l-6.049,3.516
								C342.053,160.277,338.614,154.323,334.36,151.867z"/>
						</g>
					</g>
                    <g>
						<polygon style="fill:#D3DAE4;"
                                 points="331.678,269.049 187.447,185.777 187.447,88.848 331.678,172.12 						"/>
                        <polygon style="fill:#E9EDF2;"
                                 points="217.859,125.022 194.2,111.363 194.2,102.534 217.859,116.194 						"/>
                        <polygon style="fill:#E9EDF2;"
                                 points="244.047,140.142 220.388,126.482 220.388,117.654 244.047,131.314 						"/>
                        <polygon style="fill:#E9EDF2;"
                                 points="270.236,155.262 246.576,141.602 246.576,132.774 270.236,146.433 						"/>
                        <polygon style="fill:#E9EDF2;"
                                 points="296.424,170.381 272.764,156.722 272.764,147.894 296.424,161.553 						"/>
                        <polygon style="fill:#E9EDF2;"
                                 points="324.926,186.837 298.953,171.841 298.953,163.013 324.926,178.009 						"/>
                        <polygon style="fill:#FF6D81;"
                                 points="217.859,137.127 194.2,123.467 194.2,114.639 217.859,128.299 						"/>
                        <polygon style="fill:#FF6D81;"
                                 points="244.047,152.247 220.388,138.587 220.388,129.759 244.047,143.418 						"/>
                        <polygon style="fill:#FF6D81;"
                                 points="270.236,167.366 246.576,153.707 246.576,144.878 270.236,158.538 						"/>
                        <polygon style="fill:#FF6D81;"
                                 points="296.424,182.486 272.764,168.826 272.764,159.998 296.424,173.658 						"/>
                        <polygon style="fill:#FF6D81;"
                                 points="324.926,198.942 298.953,183.946 298.953,175.118 324.926,190.114 						"/>
                        <polygon style="fill:#E9EDF2;"
                                 points="217.859,149.232 194.2,135.572 194.2,126.744 217.859,140.403 						"/>
                        <polygon style="fill:#E9EDF2;"
                                 points="244.047,164.351 220.388,150.692 220.388,141.863 244.047,155.523 						"/>
                        <polygon style="fill:#E9EDF2;"
                                 points="270.236,179.471 246.576,165.811 246.576,156.983 270.236,170.643 						"/>
                        <polygon style="fill:#E9EDF2;"
                                 points="296.424,194.591 272.764,180.931 272.764,172.103 296.424,185.762 						"/>
                        <polygon style="fill:#E9EDF2;"
                                 points="324.926,211.046 298.953,196.051 298.953,187.223 324.926,202.218 						"/>
                        <polygon style="fill:#E9EDF2;"
                                 points="217.859,161.336 194.2,147.677 194.2,138.848 217.859,152.508 						"/>
                        <polygon style="fill:#E9EDF2;"
                                 points="244.047,176.456 220.388,162.796 220.388,153.968 244.047,167.628 						"/>
                        <polygon style="fill:#E9EDF2;"
                                 points="270.236,191.576 246.576,177.916 246.576,169.088 270.236,182.747 						"/>
                        <polygon style="fill:#E9EDF2;"
                                 points="296.424,206.695 272.764,193.036 272.764,184.207 296.424,197.867 						"/>
                        <polygon style="fill:#E9EDF2;"
                                 points="324.926,223.151 298.953,208.155 298.953,199.327 324.926,214.323 						"/>
                        <polygon style="fill:#E9EDF2;"
                                 points="217.859,173.441 194.2,159.781 194.2,150.953 217.859,164.613 						"/>
                        <polygon style="fill:#E9EDF2;"
                                 points="244.047,188.561 220.388,174.901 220.388,166.073 244.047,179.732 						"/>
                        <polygon style="fill:#E9EDF2;"
                                 points="270.236,203.68 246.576,190.021 246.576,181.192 270.236,194.852 						"/>
                        <polygon style="fill:#E9EDF2;"
                                 points="296.424,218.8 272.764,205.14 272.764,196.312 296.424,209.972 						"/>
                        <polygon style="fill:#E9EDF2;"
                                 points="324.926,235.256 298.953,220.26 298.953,211.432 324.926,226.428 						"/>
                        <polygon style="fill:#E9EDF2;"
                                 points="217.859,185.545 194.2,171.886 194.2,163.058 217.859,176.717 						"/>
                        <polygon style="fill:#E9EDF2;"
                                 points="244.047,200.665 220.388,187.006 220.388,178.177 244.047,191.837 						"/>
                        <polygon style="fill:#E9EDF2;"
                                 points="270.236,215.785 246.576,202.125 246.576,193.297 270.236,206.957 						"/>
                        <polygon style="fill:#E9EDF2;"
                                 points="296.424,230.905 272.764,217.245 272.764,208.417 296.424,222.076 						"/>
                        <polygon style="fill:#E9EDF2;"
                                 points="324.926,247.36 298.953,232.365 298.953,223.536 324.926,238.532 						"/>
                        <polygon style="fill:#E9EDF2;"
                                 points="217.859,197.65 194.2,183.99 194.2,175.162 217.859,188.822 						"/>
                        <polygon style="fill:#E9EDF2;"
                                 points="244.047,212.77 220.388,199.11 220.388,190.282 244.047,203.942 						"/>
                        <polygon style="fill:#E9EDF2;"
                                 points="270.236,227.89 246.576,214.23 246.576,205.402 270.236,219.061 						"/>
                        <polygon style="fill:#E9EDF2;"
                                 points="296.424,243.009 272.764,229.35 272.764,220.521 296.424,234.181 						"/>
                        <polygon style="fill:#E9EDF2;"
                                 points="324.926,259.465 298.953,244.469 298.953,235.641 324.926,250.637 						"/>
                        <polygon style="fill:#7489FF;"
                                 points="331.678,160.015 187.447,76.743 187.447,88.848 331.678,172.12 						"/>
					</g>
				</g>
			</g>
            <path style="fill:#FF3F36;" d="M393.918,187.679l-25.457-14.698c-2.48-1.432-4.49-5.273-4.49-8.58v-27.543
				c0-3.307,2.01-4.827,4.49-3.395l25.457,14.698c2.48,1.432,4.491,5.273,4.491,8.58v27.543
				C398.409,187.591,396.398,189.111,393.918,187.679z"/>
            <path style="fill:#FF3F36;" d="M164.951,137.449l-25.457-14.698c-2.48-1.432-4.49-5.273-4.49-8.58V86.628
				c0-3.307,2.01-4.826,4.49-3.395l25.457,14.698c2.48,1.432,4.49,5.273,4.49,8.58v27.543
				C169.441,137.361,167.431,138.881,164.951,137.449z"/>
            <path style="fill:#FF6D81;" d="M352.937,130.393l-15.603-9.008c-1.52-0.878-2.752-3.232-2.752-5.259V99.244
				c0-2.027,1.232-2.958,2.752-2.081l15.603,9.008c1.52,0.878,2.752,3.232,2.752,5.259v16.881
				C355.69,130.339,354.457,131.27,352.937,130.393z"/>
            <g>
				<g>
					<path style="fill:#ACD4F2;" d="M323.179,219.038l-50.848-29.357c-0.391-0.226-0.749-0.241-1.024-0.085l-0.001-0.001
						l-1.746,1.008l2.018,1.437l48.746,30.539l2.696,6.1l-0.626,47.591l-0.031,2.348l1.767-1.02l0-0.001
						c0.383-0.232,0.624-0.753,0.624-1.489v-48.43v-5.631C324.754,220.887,324.049,219.54,323.179,219.038z"/>
                    <path style="fill:#FFFFFF;" d="M321.165,278.511l-50.288-29.034c-1.025-0.592-1.855-2.178-1.855-3.544v-50.344l53.998,31.176
						v50.344C323.021,278.475,322.19,279.103,321.165,278.511z"/>
                    <path style="fill:#D62A36;" d="M321.445,220.039l-50.848-29.357c-0.397-0.229-0.759-0.241-1.035-0.077l-0.002-0.001
						l-0.923,0.533l0.425,0.299c-0.025,0.134-0.039,0.279-0.039,0.437v4.599c0,0.639,0.341,1.229,0.894,1.548l47.551,27.454
						l4.262,3.074l0.908-0.524c0.002-0.001,0.005-0.003,0.007-0.004l0.01-0.006v-0.001c0.215-0.13,0.367-0.363,0.367-0.65v-4.315
						C323.021,221.888,322.315,220.541,321.445,220.039z"/>
                    <path style="fill:#FF3F36;" d="M320.516,220.575l-50.848-29.357c-0.87-0.502-1.575,0.031-1.575,1.191v4.599
						c0,0.639,0.341,1.229,0.894,1.548l51.964,30.002c0.507,0.292,1.14-0.073,1.14-0.658v-4.315
						C322.091,222.425,321.386,221.077,320.516,220.575z"/>
                    <g>
						<polygon style="fill:#FF3F36;" points="312.008,260.986 297.012,221.709 293.173,219.493 278.177,241.453 280.096,246.325 
							310.089,263.642 						"/>
                        <g>
							<g>
								<polygon style="fill:#FFFFFF;"
                                         points="292.53,233.688 297.654,236.646 297.654,231.991 292.53,229.033 								"/>
                                <polygon style="fill:#FFFFFF;"
                                         points="292.53,233.688 297.654,236.646 296.783,245.314 293.401,243.362 								"/>
							</g>
                            <path style="fill:#FFFFFF;" d="M292.999,248.099c0,1.327,0.937,2.944,2.094,3.611c1.156,0.668,2.094,0.133,2.094-1.194
								s-0.937-2.944-2.094-3.611C293.936,246.238,292.999,246.772,292.999,248.099z"/>
						</g>
					</g>
				</g>
			</g>
            <g>
				<path style="fill:#FFFFFF;" d="M377.564,163.593v-1.469c0-1.272,0.191-2.267,0.572-2.987c0.381-0.72,1.079-1.318,2.092-1.792
					c0.977-0.43,1.62-0.866,1.932-1.308c0.312-0.443,0.467-1.048,0.467-1.816c0-0.861-0.223-1.645-0.669-2.353
					c-0.446-0.708-1.069-1.293-1.869-1.755c-1.395-0.805-2.985-1.074-4.77-0.807l-1.52-5.229c2.074-0.458,4.272-0.016,6.598,1.326
					c1.915,1.106,3.438,2.641,4.567,4.604c1.131,1.963,1.696,4.037,1.696,6.223c0,1.457-0.233,2.58-0.698,3.372
					c-0.465,0.792-1.348,1.473-2.65,2.046c-0.893,0.425-1.458,0.814-1.695,1.167c-0.237,0.352-0.355,0.926-0.355,1.721v1.192
					L377.564,163.593z M377.118,170.13c0-1.113,0.209-1.832,0.627-2.161c0.418-0.327,1.027-0.261,1.827,0.201
					c0.772,0.446,1.369,1.082,1.793,1.91c0.422,0.826,0.634,1.783,0.634,2.869c0,1.046-0.214,1.747-0.641,2.102
					c-0.428,0.356-1.023,0.313-1.786-0.127c-0.781-0.451-1.385-1.095-1.813-1.931C377.332,172.157,377.118,171.203,377.118,170.13z"
                />
			</g>
            <g>
				<path style="fill:#FFFFFF;" d="M342.804,116.128v-0.914c0-0.791,0.119-1.41,0.356-1.857c0.237-0.448,0.671-0.819,1.3-1.114
					c0.607-0.267,1.007-0.538,1.201-0.813c0.193-0.275,0.29-0.651,0.29-1.129c0-0.535-0.139-1.022-0.416-1.463
					c-0.277-0.44-0.665-0.803-1.162-1.09c-0.867-0.501-1.856-0.669-2.965-0.503l-0.944-3.25c1.289-0.284,2.656-0.01,4.101,0.825
					c1.191,0.687,2.137,1.64,2.84,2.862c0.702,1.219,1.053,2.51,1.053,3.868c0,0.905-0.145,1.605-0.434,2.095
					c-0.289,0.493-0.838,0.916-1.648,1.272c-0.555,0.265-0.906,0.506-1.053,0.725c-0.148,0.219-0.222,0.576-0.222,1.07v0.741
					L342.804,116.128z M342.527,120.19c0-0.692,0.13-1.139,0.39-1.344c0.26-0.203,0.639-0.162,1.136,0.126
					c0.48,0.276,0.851,0.672,1.114,1.186c0.263,0.515,0.395,1.11,0.395,1.784c0,0.65-0.134,1.086-0.399,1.307
					c-0.266,0.22-0.636,0.195-1.11-0.08c-0.485-0.28-0.861-0.68-1.127-1.199C342.66,121.45,342.527,120.857,342.527,120.19z"/>
			</g>
            <g>
				<path style="fill:#FFFFFF;" d="M148.552,113.915v-1.441c0-1.245,0.186-2.222,0.56-2.927c0.374-0.707,1.057-1.292,2.05-1.756
					c0.958-0.421,1.588-0.848,1.894-1.282c0.305-0.435,0.458-1.027,0.458-1.779c0-0.845-0.219-1.613-0.657-2.306
					c-0.437-0.695-1.047-1.267-1.831-1.72c-1.368-0.788-2.925-1.052-4.676-0.791l-1.489-5.124c2.032-0.45,4.188-0.016,6.466,1.299
					c1.877,1.084,3.369,2.589,4.477,4.512c1.108,1.925,1.661,3.958,1.661,6.099c0,1.427-0.228,2.528-0.683,3.304
					c-0.456,0.776-1.321,1.443-2.598,2.005c-0.875,0.416-1.428,0.798-1.661,1.144c-0.233,0.346-0.349,0.908-0.349,1.687v1.169
					L148.552,113.915z M148.114,120.321c0-1.091,0.206-1.797,0.616-2.118c0.41-0.321,1.007-0.256,1.79,0.197
					c0.757,0.437,1.342,1.06,1.757,1.871c0.414,0.81,0.622,1.749,0.622,2.813c0,1.025-0.209,1.712-0.629,2.06
					c-0.419,0.349-1.002,0.308-1.75-0.124c-0.765-0.441-1.358-1.073-1.777-1.892C148.324,122.307,148.114,121.371,148.114,120.321z"
                />
			</g>
		</g>
        <g>
			<g>
				
					<rect x="153.34" y="219.538"
                          transform="matrix(0.4525 -0.8918 0.8918 0.4525 -115.1831 259.1927)"
                          style="fill:#868888;" width="0.306" height="7.726"/>
			</g>
            <ellipse style="fill:#D1D6E1;" cx="147.714" cy="361.314" rx="14.784"
                     ry="8.616"/>
            <path style="fill:#D1D6E1;" d="M225.686,354.987c-3.492,5.141-14.636,7.271-24.892,4.758
				c-10.255-2.514-15.738-8.72-12.246-13.861c3.492-5.141,14.636-7.271,24.892-4.758
				C223.696,343.64,229.178,349.846,225.686,354.987z"/>
            <g>
				<path style="fill:#001223;" d="M197.714,336.39c0,0-1.502,0.363-2.304,0.927c-0.802,0.564-7.209,7.218-8.603,9.189
					s-1.959,4.748,1.924,5.194c3.883,0.446,8.477-4.313,8.376-4.447c-0.101-0.134,2.726-3.545,3.436-3.846
					c0.711-0.301,5.575-0.594,5.616-3.863c0.041-3.269-0.919-7.788-0.919-7.788L197.714,336.39z"/>
                <path style="fill:#001223;" d="M217.161,343.061l-2.333,6.422c0,0-4.167,8.211-3.668,10.736
					c0.499,2.525,5.239,1.949,6.214,1.696c0.975-0.253,4.805-3.061,5.736-6.805c0.93-3.744,2.823-6.902,2.852-9.111
					c0.029-2.209-0.5-5.839-1.419-6.602C223.624,338.635,217.161,343.061,217.161,343.061z"/>
                <path style="fill:#002341;" d="M193.364,305.913c0,0-2.493-1.455-1.517,5.057c0.976,6.513,3.447,24.572,3.692,26.122
					c0.246,1.55,9.866,2.553,10.397-1.02s1.503-17.701,1.059-22.876c-0.445-5.176-3.342-10.249-3.342-10.249L193.364,305.913z"/>
                <path style="fill:#062846;" d="M209.907,320.245c3.28,8.406,5.232,21.996,5.445,26.152c3.632,2.829,8.866,1.303,9.917-1.556
					s1.09-13.066,0.057-22.314c-1.034-9.248-6.249-16.25-6.249-16.25L209.907,320.245z"/>

                <linearGradient
                        id="SVGID_00000121987764841975224200000014279255420806732692_"
                        gradientUnits="userSpaceOnUse" x1="9077.3584"
                        y1="173.2393" x2="9086.0791" y2="173.2393"
                        gradientTransform="matrix(0.9999 0.0124 -0.0124 0.9999 -8894.3486 -7.7717)">
					<stop offset="0.2331" style="stop-color:#FFB69C"/>
                    <stop offset="0.7787" style="stop-color:#FF9874"/>
                    <stop offset="1" style="stop-color:#FC946F"/>
				</linearGradient>
                <path style="fill:url(#SVGID_00000121987764841975224200000014279255420806732692_);"
                      d="M182.73,270.994
					c0,0-0.644,3.836-0.849,4.298c-0.205,0.461-1.846,4.55-1.955,5.311s1.286,4.49,1.286,4.49s2.801,2.587,3.227,2.99
					c0.426,0.403,1.322,0.282,1.322,0.282s0.726,0.25,1.193,0.036c0.467-0.214,0.255-1.874,0.255-1.874l-0.151-1.162l-1.092-2.764
					c0,0,1.4-4.655,1.431-6.445c0.031-1.789-0.39-2.623-0.39-2.623l1.796-5.811L182.73,270.994z"/>

                <linearGradient
                        id="SVGID_00000013885740589659276500000015931977735208157846_"
                        gradientUnits="userSpaceOnUse" x1="9201.8516"
                        y1="-1251.1768" x2="9205.4131" y2="-1251.1768"
                        gradientTransform="matrix(0.9935 0.1142 -0.1142 0.9935 -9103.4521 470.1985)">
					<stop offset="0.2331" style="stop-color:#FFB69C"/>
                    <stop offset="0.7787" style="stop-color:#FF9874"/>
                    <stop offset="1" style="stop-color:#FC946F"/>
				</linearGradient>
                <path style="fill:url(#SVGID_00000013885740589659276500000015931977735208157846_);"
                      d="M185.273,276.122
					c0.029-0.831-0.126-2.383-0.63-2.641c-0.504-0.258-2.135-0.579-2.629,1.399c-0.494,1.978-0.349,4.196-0.349,4.196
					s-0.694,2.555-0.694,3.423c0,0.867,1.468,0.436,1.769,0.07c0.3-0.366,0.921-2.863,0.921-2.863L185.273,276.122z"/>
                <path style="fill:#1A3954;" d="M201.352,223.238c0,0,0.132-1.279-3.142-1.24c-3.274,0.039-6.123,2.27-7.321,5.27
					c-1.197,3.001-4.056,17.507-4.039,18.861c0.016,1.353,6.522,3.215,8.912,2.901C198.152,248.717,201.352,223.238,201.352,223.238
					z"/>
                <path style="fill:#1A3954;" d="M193.124,245.307c0,0-5.351-1.447-6.274,0.823c-0.923,2.269-5.093,23.163-5.118,25.151
					c-0.025,1.988,6.276,1.669,6.276,1.669s8.258-21.475,8.41-24.57C196.571,245.283,193.124,245.307,193.124,245.307z"/>
                <path style="fill:#002341;" d="M195.091,263.028c-1.42,2.236-3.747,2.804-4.553,14.326c-0.806,11.523-0.419,28.363,1.433,34.02
					c1.852,5.657,10.049,2.047,10.926,0.865c0.876-1.182,4.448-21.884,4.43-25.795c-0.018-3.911-1.159-18.706-2.993-20.452
					C202.499,264.247,195.091,263.028,195.091,263.028z"/>
                <path style="fill:#062846;" d="M198.29,272.281c0.311,1.661-1.42,12.907,0.714,17.242c2.133,4.335,6.037,4.914,6.034,5.113
					c-0.002,0.199,4.162,22.455,4.978,26.11c0.816,3.656,10.19,1.386,11.152-1.319c0.962-2.706,1.273-17.085,1.538-22.384
					c0.265-5.299,2.807-23.23-3.002-30.46C213.894,259.352,198.29,272.281,198.29,272.281z"/>
                <path style="fill:#8D9DAB;" d="M221.598,269.971c-2.263,8.471-18.363,8.422-23.599,5.554c-3.516-1.926-5.868-3.873-5.874-7.673
					c-0.006-3.8-0.255-12.199-0.723-24.312s1.618-16.418,4.125-19.038c2.507-2.62,6.357-2.152,9.184-2.117
					c2.828,0.035,4.828-1.796,9.567,0.848c4.739,2.644,10.49,6.079,11.005,7.345c0.515,1.266-3.946,26.163-3.815,32.778
					C221.598,269.971,221.598,269.971,221.598,269.971z"/>
                <path style="fill:#0B2C49;" d="M193.599,281.679c0,0,0.86-18.927,0.938-21.663s-1.375-33.209,6.816-35.596
					c8.19-2.388,5.975-3.58,5.975-3.58s-12.712-1.252-15.291,8.88c-2.579,10.132-0.625,37.121-2.345,47.542
					C190.863,280.337,193.599,281.679,193.599,281.679z"/>
                <path style="fill:#1A3954;" d="M201.134,224.299c-3.901,3.4-5.034,11.023-5.581,23.878c-0.547,12.855-1.563,24.791-1.563,24.791
					s-0.86-22.33-0.782-32.882c0.078-10.551,2.357-15.61,7.926-17.236C200.659,223.673,201.134,224.299,201.134,224.299z"/>
                <path style="fill:#0B2C49;" d="M213.945,224.42c1.525,1.64-2.798,6.098-4.754,14.65c-2.186,9.561-2.958,17.797-2.958,21.337
					c0,0.338-0.521,18.255-0.069,22.599c0.333,3.196,3.7,4.803,6.811,3.998c4.354-1.127,9.813-3.449,11.599-8.152
					c3.126-8.233-3.374-15.741-0.417-30.95c2.957-15.21,1.586-17.185,1.586-17.185s-5.382-5.269-12.197-7.866
					C206.732,220.254,213.945,224.42,213.945,224.42z"/>
                <path style="fill:#1A3954;" d="M205.981,272.968c-0.463-25.691,2.389-35.927,4.85-40.882c2.461-4.956,5.002-5.808,3.72-8.699
					c2.053,1.121,4.004,3.674,2.012,7.478c-1.992,3.804-3.763,9.9-3.763,9.9L205.981,272.968z"/>
                <path style="fill:#1A3954;" d="M221.176,229.859c-2.807,1.865-6.248,5.004-3.722,11.487
					c2.527,6.483,11.536,21.044,11.536,21.044s9.091,0.953,8.616-3.516c-0.475-4.469-9.415-25.917-11.863-28.157
					C223.296,228.477,221.176,229.859,221.176,229.859z"/>
                <path style="fill:#1A3954;" d="M229.753,257.936c0,0-1.548,1.477-3.33,6.183s-7.021,17.367-7.033,18.339
					c-0.012,0.972,5.932,4.675,7.319,3.367c1.671-2.807,11.3-21.634,10.904-26.372C237.217,254.715,229.753,257.936,229.753,257.936
					z"/>

                <linearGradient
                        id="SVGID_00000166641464835704401800000008044605920886608009_"
                        gradientUnits="userSpaceOnUse" x1="9109.1094"
                        y1="184.6398" x2="9122.7197" y2="184.6398"
                        gradientTransform="matrix(0.9999 0.0124 -0.0124 0.9999 -8894.3486 -7.7717)">
					<stop offset="0.2331" style="stop-color:#FFB69C"/>
                    <stop offset="0.7787" style="stop-color:#FF9874"/>
                    <stop offset="1" style="stop-color:#FC946F"/>
				</linearGradient>
                <path style="fill:url(#SVGID_00000166641464835704401800000008044605920886608009_);"
                      d="M221.366,282.08l-1.841,1.479
					c0,0-3.108,2.118-3.377,2.423c-0.269,0.305-1.286,2.115-1.286,2.115l-0.525,2.214c0,0-1.539,1.174-1.743,1.536
					c-0.203,0.362,0.748,1.169,1.214,0.976c0.466-0.193,0.634-0.324,0.634-0.324l-2.964,3.874l0.519,0.901
					c0,0,0.624,0.472,1.553,0.384c0.929-0.088,5.302-2.599,6.712-4.066c1.41-1.467,4.803-7.788,4.939-8.051
					c0.024-0.047,0.029-0.16,0.021-0.313c-0.068-1.323-1.016-2.437-2.301-2.759L221.366,282.08z"/>

                <linearGradient
                        id="SVGID_00000114065042095202479590000007209441180686510222_"
                        gradientUnits="userSpaceOnUse" x1="9095.0615"
                        y1="112.1544" x2="9109.8516" y2="112.1544"
                        gradientTransform="matrix(0.9999 0.0124 -0.0124 0.9999 -8894.3486 -7.7717)">
					<stop offset="0.2331" style="stop-color:#FFB69C"/>
                    <stop offset="0.7787" style="stop-color:#FF9874"/>
                    <stop offset="1" style="stop-color:#FC946F"/>
				</linearGradient>
                <path style="fill:url(#SVGID_00000114065042095202479590000007209441180686510222_);"
                      d="M198.396,218.462
					c1.98,3.306,2.177,6.836,2.143,8.875c-0.034,2.04,3.684,2.2,7.236,1.78c3.551-0.42,5.953-4.367,5.215-6.298
					c-0.738-1.931-1.55-5.951-1.285-8.599c0.265-2.648,1.058-7.808,0.896-8.075c-0.162-0.267-5.688-0.965-5.688-0.965
					L198.396,218.462z"/>

                <linearGradient
                        id="SVGID_00000178173524555299377450000003207883420478931608_"
                        gradientUnits="userSpaceOnUse" x1="9090.4854"
                        y1="105.9056" x2="9104.9365" y2="105.9056"
                        gradientTransform="matrix(0.9999 0.0124 -0.0124 0.9999 -8894.3486 -7.7717)">
					<stop offset="0.2331" style="stop-color:#FFB69C"/>
                    <stop offset="0.7787" style="stop-color:#FF9874"/>
                    <stop offset="1" style="stop-color:#FC946F"/>
				</linearGradient>
                <path style="fill:url(#SVGID_00000178173524555299377450000003207883420478931608_);"
                      d="M208.132,208.343
					c0,0,0.494,8.225-0.13,10.471c-0.624,2.246-7.973,4.242-8.704,4.366c-0.731,0.123-2.549-0.197-3.63-1.238
					c-1.081-1.041-1.705-9.466-1.718-13.775c-0.013-4.308,0.981-6.947,2.789-8.383c1.807-1.436,8.271-1.521,9.58-0.179
					C207.628,200.946,208.132,208.343,208.132,208.343z"/>
                <path style="fill:#553012;" d="M197.839,204.134c5.276,1.817,6.282,0.507,6.372,1.304c0.09,0.796,1.888,3.907,1.888,3.907
					l0.56,2.956l1.895-0.507c0,0-0.206-2.123,2.217-2.392c2.423-0.268-0.117,4.075-0.066,5.269c0.051,1.194,1.032,2.324,1.032,2.324
					s1.668-3.583,2.314-4.835c0.645-1.251,3.907-10.391-2.117-13.68c-4.042-5.452-10.224-3.971-13.853-2.625
					c-3.629,1.347-4.221,3.162-4.037,4.59c0.184,1.427,0.756,2.079,0.756,2.079S195.151,203.209,197.839,204.134z"/>

                <linearGradient
                        id="SVGID_00000057107419174036396990000007064364753091154325_"
                        gradientUnits="userSpaceOnUse" x1="9105.7949"
                        y1="107.0255" x2="9109.0342" y2="107.0255"
                        gradientTransform="matrix(0.9999 0.0124 -0.0124 0.9999 -8894.3486 -7.7717)">
					<stop offset="0.2331" style="stop-color:#FFB69C"/>
                    <stop offset="0.7787" style="stop-color:#FF9874"/>
                    <stop offset="1" style="stop-color:#FC946F"/>
				</linearGradient>
                <path style="fill:url(#SVGID_00000057107419174036396990000007064364753091154325_);"
                      d="M209.4,211.187
					c0,0-0.402-2.358,2.114-2.095c2.515,0.263-0.609,6.322-1.701,6.176C208.722,215.122,209.4,211.187,209.4,211.187z"/>
			</g>
            <g>
				<polygon style="fill:#002341;" points="149.462,353.686 148.605,356.257 147.715,356.532 146.766,355.916 145.967,351.164 				
					"/>
                <polygon style="fill:#002341;" points="136.41,358.803 136.183,362.042 135.326,362.322 134.729,361.836 134.314,356.199
					"/>
                <path style="fill:#002341;" d="M151.956,346.661c0,0-0.807-0.363,4.6,4.262c3.233,2.766,5.15,6.214,5.47,7.367
					c0.416,1.497-0.562,2.026-2.629,2.055c-1.531,0.021-5.061-0.814-6.075-2.518c-2.563-4.308-2.928-3.336-4.191-3.619
					c-1.262-0.284-5.253-3.263-3.199-7.294C147.986,342.88,151.956,346.661,151.956,346.661z"/>
                <path style="fill:#002341;" d="M138.932,351.75c0,0,2.093,3.299,4.227,6.65c3.446,5.413,3.063,9.03,2.099,9.367
					c-2.321,0.811-7.108-0.724-8.76-5.656c-0.446-1.333-0.274-2.413-1.049-3.104c-1.052-0.939-1.391-2.518-1.364-4.523
					c0.012-0.883,0.254-2.023,1.695-2.171C136.871,352.202,138.932,351.75,138.932,351.75z"/>

                <linearGradient
                        id="SVGID_00000120532864576737544940000014392103398344929683_"
                        gradientUnits="userSpaceOnUse" x1="9038.8789"
                        y1="358.0994" x2="9046.3369" y2="358.0994"
                        gradientTransform="matrix(1 0 0 1 -8903.4434 0)">
					<stop offset="0" style="stop-color:#FC946F"/>
                    <stop offset="0.2213" style="stop-color:#FF9874"/>
                    <stop offset="0.7669" style="stop-color:#FFB69C"/>
				</linearGradient>
                <path style="fill:url(#SVGID_00000120532864576737544940000014392103398344929683_);"
                      d="M135.435,355.432
					c2.499,3.475,3.295,6.557,6.111,6.491c2.817-0.066,0.497-5.17-0.497-6.959C140.055,353.175,135.435,355.432,135.435,355.432z"/>

                <linearGradient
                        id="SVGID_00000032638328478348075010000001639128903037957281_"
                        gradientUnits="userSpaceOnUse" x1="8054.7295"
                        y1="4041.6226" x2="8062.3301" y2="4041.6226"
                        gradientTransform="matrix(0.9631 -0.2691 0.2691 0.9631 -8695.3623 -1372.8041)">
					<stop offset="0" style="stop-color:#FC946F"/>
                    <stop offset="0.2213" style="stop-color:#FF9874"/>
                    <stop offset="0.7669" style="stop-color:#FFB69C"/>
				</linearGradient>
                <path style="fill:url(#SVGID_00000032638328478348075010000001639128903037957281_);"
                      d="M149.076,349.749
					c5.637,2.796,5.639,5.05,8.327,4.204c2.055-0.646-2.51-4.636-3.949-6.092C152.015,346.406,149.076,349.749,149.076,349.749z"/>

                <linearGradient
                        id="SVGID_00000013191401237259682440000010188874050710958249_"
                        gradientUnits="userSpaceOnUse" x1="9046.8955"
                        y1="307.5356" x2="9063.3555" y2="307.5356"
                        gradientTransform="matrix(1 0 0 1 -8903.4434 0)">
					<stop offset="0" style="stop-color:#FC946F"/>
                    <stop offset="0.2213" style="stop-color:#FF9874"/>
                    <stop offset="0.7669" style="stop-color:#FFB69C"/>
				</linearGradient>
                <path style="fill:url(#SVGID_00000013191401237259682440000010188874050710958249_);"
                      d="M159.912,294.614
					c-0.096,4.159-1.556,18.834-3.445,25.964c-1.889,7.13-3.435,7.287-5.639,7.269c-2.204-0.018-4.817,1.08-5.963-2.833
					c-1.146-3.913-1.413-25.985-1.413-25.985l4.465-11.932L159.912,294.614z"/>

                <linearGradient
                        id="SVGID_00000168827517177261996220000004672173399922211508_"
                        gradientUnits="userSpaceOnUse" x1="9047.459"
                        y1="335.977" x2="9059.2607" y2="335.977"
                        gradientTransform="matrix(1 0 0 1 -8903.4434 0)">
					<stop offset="0" style="stop-color:#FC946F"/>
                    <stop offset="0.2213" style="stop-color:#FF9874"/>
                    <stop offset="0.7669" style="stop-color:#FFB69C"/>
				</linearGradient>
                <path style="fill:url(#SVGID_00000168827517177261996220000004672173399922211508_);"
                      d="M152.887,319.897
					c0,0,3.786-0.872,2.265,4.704c-1.521,5.576-2.752,19.25-1.543,22.952c0.338,1.035,1.388,1.846,2.088,3.237
					c0.699,1.391-1.774,1.956-3.794,0.315c-2.02-1.641-5.688-1.247-5.473-4.678c0.376-5.987-1.902-11.975-2.295-17.151
					c-0.236-3.105-0.142-3.981,0.494-5.397C146.323,320.102,152.887,319.897,152.887,319.897z"/>

                <linearGradient
                        id="SVGID_00000040543607228458171900000010147350291119252919_"
                        gradientUnits="userSpaceOnUse" x1="9031.7354"
                        y1="307.7225" x2="9050.9053" y2="307.7225"
                        gradientTransform="matrix(1 0 0 1 -8903.4434 0)">
					<stop offset="0" style="stop-color:#FC946F"/>
                    <stop offset="0.2213" style="stop-color:#FF9874"/>
                    <stop offset="0.7669" style="stop-color:#FFB69C"/>
				</linearGradient>
                <path style="fill:url(#SVGID_00000040543607228458171900000010147350291119252919_);"
                      d="M147.461,300.482
					c0,0-0.98,24.909-3.482,27.662c-2.502,2.753-11.109,0.167-10.828-4.4c0.282-4.567-4.393-18.564-4.83-26.309
					c-0.437-7.745,4.039-11.265,4.039-11.265L147.461,300.482z"/>

                <linearGradient
                        id="SVGID_00000065041478375766171310000001818809402315833480_"
                        gradientUnits="userSpaceOnUse" x1="9035.2607"
                        y1="339.1203" x2="9048.1465" y2="339.1203"
                        gradientTransform="matrix(1 0 0 1 -8903.4434 0)">
					<stop offset="0" style="stop-color:#FC946F"/>
                    <stop offset="0.2213" style="stop-color:#FF9874"/>
                    <stop offset="0.7669" style="stop-color:#FFB69C"/>
				</linearGradient>
                <path style="fill:url(#SVGID_00000065041478375766171310000001818809402315833480_);"
                      d="M138.698,320.785
					c0,0,7.706,1.225,5.659,6.754c-2.048,5.53-4.481,14.821-3.276,26.435c0.319,3.072,1.657,4.389-0.042,4.934
					c-3.208,1.028-6.164-3.721-6.219-5.171c-0.074-1.977-0.243-3.842-0.466-5.594c-1.009-7.928-2.98-12.2-2.446-18.868
					c0.34-4.239,2.577-10.086,2.577-10.086L138.698,320.785z"/>
                <path style="fill:#002341;" d="M156.989,277.985c3.866,3.203,4.504,18.311,4.905,34.671c-1.115,3.44-13.928,9.926-24.017,9.281
					c-5.072-0.324-9.271-3.175-10.579-6.837c1.258-9.536-1.373-26.914,3.91-33.204C134.638,277.81,151.062,273.073,156.989,277.985z
					"/>
                <path style="fill:#1A3954;" d="M147.533,234.555c4.86-2.301,10.267,1.003,12.367,4.981c2.1,3.978,6.061,19.679,7.234,22.94
					c1.172,3.261,1.746,3.549-0.64,3.52c-2.385-0.028-8.009-2.824-9.45-4.198C155.604,260.425,147.533,234.555,147.533,234.555z"/>
                <path style="fill:#4E2708;" d="M141.426,212.173c-7.604-4.031-12.135,4.659-9.672,12.301c2.463,7.643-4.164,10.899-7.595,10.766
					c3.83,6.71,18.017,5.746,16.57-2.494S141.426,212.173,141.426,212.173z"/>
                <path style="fill:#B8C2CB;" d="M143.149,233.797c-6.964,1.656-16.191,5.969-17.523,8.535c-1.332,2.565,2.591,8.141,3.219,21.737
					c0.628,13.595,0.452,12.072,0.741,14.958c0.289,2.886,9.902,6.185,20.334,3.607c8.66-2.141,8.664-5.69,8.969-9.758
					c0.305-4.067,0.438-2.831,0.817-11.39c0.402-9.076-4.495-23.26-6.164-25.122C148.75,231.017,143.149,233.797,143.149,233.797z"
                />
                <path style="fill:#0B2C49;" d="M144.926,235.17c5.269,0.994,10.273,5.033,11.134,17.027c0.519,7.222,1.06,16.641,1.865,35.824
					c0.046,1.107,1.281,1.941,1.993,1.092c1.337-1.592,1.915-4.61,1.378-6.29c-1.06-3.314-1.524-15.89-0.663-19.866
					c0.862-3.977-0.022-10.112-1.326-14.175c-3.097-9.653-4.21-16.822-12.444-14.985C143.535,235.303,144.926,235.17,144.926,235.17
					z"/>
                <path style="fill:#1A3954;" d="M146.258,237.578c4.169,1.182,6.638,10.197,7.45,14.619c0.812,4.422,3.775,25.658,3.775,25.658
					s1.074-19.928,0.358-24.791c-0.716-4.863-3.072-14.625-7.286-16.834C146.34,234.021,146.258,237.578,146.258,237.578z"/>
                <path style="fill:#0B2C49;" d="M138.122,234.463c-8.925,4.33-11.178,5.7-11.885,7.025c-0.707,1.326-2.85,13.299-0.199,22.18
					c2.651,8.881,2.254,15.796-0.674,24.898c-0.474,1.473,2.928,6.119,11.978,6.981c9.508,0.905,11.563-1.375,11.563-6.694
					c0.002-11.021-1.218-23.237-1.786-25.859c-0.567-2.622-6.418-10.99-9.243-15.033c-2.825-4.043-4.98-8.483-0.987-10.67
					S138.122,234.463,138.122,234.463z"/>
                <path style="fill:#1A3954;" d="M158.889,243.477c2.481-1.97,4.214-0.562,4.728,0.132c0.514,0.695,8.413,11.137,9.113,13.815
					c0.7,2.678-0.339,7.073-3.296,8.346c-2.957,1.274-6.69-1.155-7.55-3.1c-0.86-1.945-6.484-14.932-6.083-16.262
					C156.202,245.08,158.889,243.477,158.889,243.477z"/>

                <linearGradient
                        id="SVGID_00000039843264435568126360000013313355746306848959_"
                        gradientUnits="userSpaceOnUse" x1="-8118.6206"
                        y1="235.8914" x2="-8103.4194" y2="230.0607"
                        gradientTransform="matrix(-1 0 0 1 -7968.4365 0)">
					<stop offset="0.2331" style="stop-color:#FFB69C"/>
                    <stop offset="0.7787" style="stop-color:#FF9874"/>
                    <stop offset="1" style="stop-color:#FC946F"/>
				</linearGradient>
                <path style="fill:url(#SVGID_00000039843264435568126360000013313355746306848959_);"
                      d="M150.31,231.379
					c0,0-2.711,10.405-3.682,11.28c-1.9,1.712-11.142-1.259-10.344-4.702c0.362-1.561,1.286-4.411,1.226-6.104
					c-0.022-0.608-0.763-8.434-0.763-8.434l6.702-0.198L150.31,231.379z"/>

                <linearGradient
                        id="SVGID_00000096055712382081939820000010234819522140329138_"
                        gradientUnits="userSpaceOnUse" x1="-8117.7681"
                        y1="227.2189" x2="-8103.0391" y2="223.747"
                        gradientTransform="matrix(-1 0 0 1 -7968.4365 0)">
					<stop offset="0.2331" style="stop-color:#FFB69C"/>
                    <stop offset="0.7787" style="stop-color:#FF9874"/>
                    <stop offset="1" style="stop-color:#FC946F"/>
				</linearGradient>
                <path style="fill:url(#SVGID_00000096055712382081939820000010234819522140329138_);"
                      d="M138.429,226.181
					c0,0,0.416,5.98,1.129,7.355c0.713,1.375,6.942,4.531,9.13,4.762c2.189,0.23,3.432-1.417,3.745-1.891
					c0.313-0.473,2.535-6.376,2.536-10.228c0.002-5.499,0.193-9.65-2.796-9.422c-2.989,0.227-12.137,1.306-12.458,2.096
					S138.429,226.181,138.429,226.181z"/>
                <path style="fill:#553012;" d="M149.396,218.131c-1.829,2.546-6.271,1.439-7.495,4.813c-1.223,3.374-1.716,3.729-2.328,5.395
					c-0.612,1.666-0.679,3.269-0.679,3.269s-0.567-3.939-2.062-4.474c-1.495-0.535-0.174,3.037-0.174,3.037l0.248,2.942
					c0,0-3.82-5.883-3.513-11.245c0.307-5.362,1.069-9.646,6.994-10.708c4.397-2.522,9.567,0.573,11.832,2.553
					c2.264,1.981,3.364,5.023,2.683,7.423c-0.282-2.431-0.596-3.434-1.92-3.292C151.659,217.985,151.676,218.257,149.396,218.131z"
                />
                <path style="fill:#1A3954;" d="M126.237,241.488c2.205-2.166,9.082,1.028,7.902,8.56c-1.18,7.532-6.764,19.87-9.068,22.559
					c-2.304,2.689-8.263,4.011-8.591-0.783c-0.328-4.795,2.711-11.967,4.365-17.336
					C122.498,249.119,123.632,244.047,126.237,241.488z"/>
			</g>
            <path style="fill:#D9DEE3;" d="M137.047,234.986c0,0-1.299,0.431-1.697,2.393c-0.398,1.962-0.585,3.225-0.431,3.844
				c0.155,0.619,2.651,5.294,10.472,5.184l1.37-3.249l2.45,1.904c0,0,0.454-2.264,0.078-4.239c-0.376-1.975-1.033-2.232-1.033-2.232
				s-1.106,3.193-1.526,3.48c-0.42,0.287-4.473,0.182-7.401-1.48s-2.503-4.449-2.503-4.449L137.047,234.986z"/>
            <path style="fill:#1A3954;" d="M135.349,237.578c-1.093,0.773-1.889,3.579-0.696,7.379c1.193,3.8,5.161,8.656,7.29,14.536
				c2.129,5.88,6.756,22.186,6.756,22.186s-0.084-16.155-1.167-21.192c-1.082-5.037-8.34-15.542-9.268-17.895
				C137.338,240.24,135.349,237.578,135.349,237.578z"/>
            <polygon style="fill:#B0634C;"
                     points="130.359,253.184 148.899,252.197 150.555,279.324 132.068,280.009 			"/>
            <path style="fill:#1A3954;" d="M119.552,268.956c0.949-0.749,2.396-1.623,8.624-1.575c6.228,0.048,12.198,0.018,13.44,0.102
				c1.242,0.084,3.23,4.977,1.359,6.789c-6.817,1.777-20.855,2.828-24.898,0.36C115.546,273.09,119.552,268.956,119.552,268.956z"/>

            <linearGradient
                    id="SVGID_00000039110139391029262880000011212117643449528227_"
                    gradientUnits="userSpaceOnUse" x1="9044.2607" y1="267.792"
                    x2="9056.3555" y2="267.792"
                    gradientTransform="matrix(1 0 0 1 -8903.4434 0)">
				<stop offset="0.2331" style="stop-color:#FFB69C"/>
                <stop offset="0.7787" style="stop-color:#FF9874"/>
                <stop offset="1" style="stop-color:#FC946F"/>
			</linearGradient>
            <path style="fill:url(#SVGID_00000039110139391029262880000011212117643449528227_);"
                  d="M140.984,268.576
				c0.111-0.397,0.397-0.721,0.777-0.882c0.678-0.288,1.523-0.804,1.662-1.133c0.674-1.601,1.64-2.243,1.64-2.243l4.499-1.844
				c0,0,2.979,0.177,3.166,0.471c0.186,0.293,0.383,0.887-0.232,1.185c-0.615,0.298-1.669,0.212-1.669,0.212
				s0.974,0.615,0.928,1.393s0.598,1.28,0.395,2.564c-0.203,1.284-0.24,2.988-0.696,3.506c-0.456,0.518-5.487,0.554-6.325,0.91
				c-0.497,0.212-1.474,0.329-2.185,0.389c-0.514,0.044-1.009-0.206-1.276-0.647l-0.195-0.322
				C140.824,271.067,140.648,269.779,140.984,268.576L140.984,268.576z"/>
            <g>
				<g>
					<path style="fill:#868888;" d="M154.107,229.332c-0.249,0-0.477-0.063-0.673-0.19c-0.403-0.259-0.615-0.747-0.599-1.377
						c0.033-1.249,0.986-2.718,2.124-3.276c0.584-0.286,1.132-0.298,1.544-0.036c0.403,0.259,0.616,0.747,0.599,1.377
						c-0.033,1.249-0.986,2.718-2.124,3.277C154.673,229.257,154.378,229.332,154.107,229.332z M152.988,227.769l0.153,0.004
						c-0.014,0.518,0.149,0.912,0.458,1.112c0.317,0.204,0.758,0.186,1.244-0.053c1.046-0.514,1.922-1.863,1.952-3.008
						c0.014-0.518-0.149-0.913-0.459-1.112c-0.318-0.201-0.759-0.185-1.243,0.054c-1.046,0.512-1.922,1.861-1.952,3.007
						L152.988,227.769z"/>
				</g>
                <g>
					<path style="fill:#868888;" d="M148.15,232.253c-0.248,0-0.476-0.063-0.672-0.188c-0.403-0.259-0.616-0.747-0.599-1.377l0,0
						c0.033-1.249,0.986-2.718,2.124-3.277c0.584-0.286,1.133-0.298,1.544-0.036c0.403,0.259,0.616,0.747,0.599,1.377
						c-0.033,1.25-0.986,2.719-2.124,3.277C148.717,232.178,148.421,232.253,148.15,232.253z M149.873,227.493
						c-0.224,0-0.473,0.064-0.735,0.193c-1.046,0.513-1.922,1.863-1.952,3.008l0,0c-0.014,0.519,0.149,0.913,0.458,1.112
						c0.318,0.202,0.76,0.185,1.243-0.054c1.046-0.512,1.922-1.862,1.952-3.008c0.014-0.518-0.149-0.913-0.458-1.112
						C150.235,227.54,150.063,227.493,149.873,227.493z"/>
				</g>
                <g>
					<path style="fill:#868888;" d="M151.127,228.821l-0.269-0.145l0.37-0.68c0.122-0.224,0.308-0.403,0.537-0.516l0.416-0.203
						c0.27-0.132,0.614-0.039,0.797,0.217l0.134,0.187l-0.249,0.177l-0.134-0.187c-0.097-0.134-0.274-0.188-0.414-0.118
						l-0.416,0.203c-0.172,0.084-0.312,0.218-0.403,0.385L151.127,228.821z"/>
				</g>
			</g>
            <g>
				<polygon style="fill:#868888;"
                         points="146.928,230.671 136.561,226.32 136.679,226.037 147.046,230.387 				"/>
			</g>
            <path style="fill:#FFB69C;" d="M138.35,228.408c0,0,0.423-2.257-1.463-2.701c-1.887-0.444-0.652,5.304,0.982,5.346
				C139.502,231.095,138.35,228.408,138.35,228.408z"/>

            <linearGradient
                    id="SVGID_00000152943900912930121600000014186170500846578094_"
                    gradientUnits="userSpaceOnUse" x1="8726.1328" y1="1796.676"
                    x2="8736.5752" y2="1796.676"
                    gradientTransform="matrix(0.9936 -0.1126 0.1126 0.9936 -8722.2568 -565.2208)">
				<stop offset="0.2331" style="stop-color:#FFB69C"/>
                <stop offset="0.7787" style="stop-color:#FF9874"/>
                <stop offset="1" style="stop-color:#FC946F"/>
			</linearGradient>
            <path style="fill:url(#SVGID_00000152943900912930121600000014186170500846578094_);"
                  d="M156.097,234.081
				c0,0-3.656-5.025-3.733-5.655c-0.086-0.701,0.529-1.49,1.448-0.68c0.919,0.81,5.493,6.724,5.493,6.724s1.098,6.02,1.253,6.793
				c0.155,0.774,0.938,1.895,0.938,1.895s-0.339,1.398-2.398,2.329c-2.059,0.931-2.582,0.885-2.582,0.885s-1.808-2.632-2.022-2.789
				c-0.214-0.158-1.832-2.077-1.832-2.077s-1.99-1.37-2.097-2.075c-0.107-0.705,0.553-1.616,0.553-1.616s-0.506-1.086-0.074-1.493
				c0.432-0.407,1.321-0.806,1.321-0.806s-0.665-0.887,0.181-1.318c0.846-0.431,1.397-0.552,1.397-0.552L156.097,234.081z"/>
            <path style="fill:#002341;" d="M201.746,232.085c0,0-5.181,33.596-4.153,36.194c1.028,2.598,2.303,3.857,2.303,3.857l2.978-2.134
				l0.463-37.211L201.746,232.085z"/>
            <path style="fill:#002341;" d="M202.731,229.135c0,0-1.439,0.162-2.009,2.508c0.252,1.512,0.507,1.885,1.121,2.278
				c0.235,0.145,1.226,0.396,1.422,0.228c0.589-0.504,0.851-1.348,0.851-1.348L202.731,229.135z"/>
            <path style="fill:#A9B5C0;" d="M212.65,222.114c0.381,1.242-3.058,7.374-9.39,6.235c-2.194-0.806-2.56-1.556-2.802-3.283
				c-2.606,3.763-1.217,5.89,0.164,6.653c1.056-2.329,2.109-2.584,2.109-2.584l1.169,3.663c0,0,3.709,0.943,6.93-1.309
				c3.539-2.474,4.792-5.936,4.049-7.503c-0.743-1.567-2.488-3.146-2.488-3.146L212.65,222.114z"/>
		</g>
	</g>
</g>
</svg>
