<svg width="20" height="18" viewBox="0 0 20 18" fill="none" xmlns="http://www.w3.org/2000/svg">
<path d="M11.8333 1.20834C15.29 1.20834 17.0188 1.20834 18.0923 2.34959C19.1657 3.49084 19.1666 5.32693 19.1666 9.00001C19.1666 12.6731 19.1666 14.5092 18.0923 15.6504C17.0179 16.7917 15.29 16.7917 11.8333 16.7917H8.16658C4.70984 16.7917 2.981 16.7917 1.90759 15.6504C0.834169 14.5092 0.833252 12.6731 0.833252 9.00001C0.833252 5.32693 0.833252 3.49084 1.90759 2.34959C2.98192 1.20834 4.70984 1.20834 8.16658 1.20834H11.8333Z" stroke="#292929" stroke-width="0.964286" stroke-linecap="round" stroke-linejoin="round"/>
<path d="M3.58325 12.2084C5.05817 10.2494 8.49109 10.1422 9.99992 12.2084M12.7499 6.70835H16.4166M12.7499 10.375H14.5833M8.39484 7.39585C8.39484 7.82131 8.22583 8.22933 7.92499 8.53017C7.62415 8.83101 7.21612 9.00002 6.79067 9.00002C6.36522 9.00002 5.95719 8.83101 5.65635 8.53017C5.35551 8.22933 5.1865 7.82131 5.1865 7.39585C5.1865 6.9704 5.35551 6.56238 5.65635 6.26154C5.95719 5.9607 6.36522 5.79169 6.79067 5.79169C7.21612 5.79169 7.62415 5.9607 7.92499 6.26154C8.22583 6.56238 8.39484 6.9704 8.39484 7.39585Z" stroke="#292929" stroke-width="0.964286" stroke-linecap="round" stroke-linejoin="round"/>
</svg>
